# xmcd CD database file
#
# Track frame offsets:
#	150
#	11126
#	20044
#	34795
#	38317
#	47221
#	55339
#	62871
#	72732
#	81265
#	89706
#	95067
#	106531
#	117664
#	123620
#	127981
#	135510
#
# Disc length: 1970 seconds
#
# Revision: 0
# Processed by: cddbd v1.4PL0 Copyright (c) Steve Scherf et al.
# Submitted via: CDex 1.50beta9
#
DISCID=f607b011
DTITLE=Cliff Edwards - Ukulele Ike Sings Again
DYEAR=1998
DGENRE=Jazz
TTITLE0=Singin' In The Rain
TTITLE1=I'll See You In My Dreams
TTITLE2=I'm Sorry I Made You Cry
TTITLE3=K-K-K-Katy
TTITLE4=When You Wore A Tulip
TTITLE5=Sleepy Time Gal
TTITLE6=At Sundown
TTITLE7=I Cried For You
TTITLE8=Ja Da
TTITLE9=June Night
TTITLE10=Darktown Strutters' Ball
TTITLE11=Sunday
TTITLE12=Swingin' Down The Lane
TTITLE13=Toot, Toot, Tootsie Goodbye
TTITLE14=No, No, Nora
TTITLE15=Five Foot Two, Eyes of Blue
TTITLE16=Sunday (overdub for special 45 release)
EXTD=YEAR: 1998
EXTT0=
EXTT1=
EXTT2=
EXTT3=
EXTT4=
EXTT5=
EXTT6=
EXTT7=
EXTT8=
EXTT9=
EXTT10=
EXTT11=
EXTT12=
EXTT13=
EXTT14=
EXTT15=
EXTT16=
PLAYORDER=
